<?xml version="1.0" standalone="no"?>
<!DOCTYPE svg PUBLIC "-//W3C//DTD SVG 20010904//EN"
 "http://www.w3.org/TR/2001/REC-SVG-20010904/DTD/svg10.dtd">
<svg version="1.0" xmlns="http://www.w3.org/2000/svg"
 width="431.000000pt" height="431.000000pt" viewBox="0 0 431.000000 431.000000"
 preserveAspectRatio="xMidYMid meet">
<metadata>
Created by potrace 1.11, written by Peter Selinger 2001-2013
</metadata>
<g transform="translate(0.000000,431.000000) scale(0.100000,-0.100000)"
fill="#000000" stroke="none">
<path d="M1658 4287 c-9 -12 -28 -35 -41 -52 -32 -40 -79 -114 -94 -147 -7
-16 -16 -28 -20 -28 -5 0 -8 12 -7 28 1 15 3 27 4 27 1 0 3 12 4 28 1 15 -1
27 -5 27 -3 0 -23 -35 -45 -77 -21 -43 -43 -81 -47 -84 -5 -3 -8 -9 -8 -13 1
-3 -6 -22 -14 -42 -8 -20 -15 -39 -15 -43 0 -3 -6 -18 -14 -33 -13 -24 -37
-88 -42 -113 -1 -5 -14 -43 -28 -82 -13 -40 -22 -73 -19 -73 3 0 0 -7 -7 -15
-7 -8 -10 -15 -7 -15 4 0 0 -18 -8 -40 -8 -22 -14 -43 -14 -45 0 -38 -20 -88
-51 -126 -21 -25 -47 -60 -58 -79 l-21 -33 25 -32 c29 -39 28 -48 -20 -146
-20 -41 -38 -85 -41 -97 -2 -12 -7 -27 -10 -32 -14 -23 56 -145 128 -224 l27
-31 -47 -22 c-27 -12 -69 -30 -95 -40 -27 -9 -48 -20 -48 -24 0 -8 40 -22 60
-20 28 3 -34 -38 -81 -53 -25 -8 -77 -29 -115 -47 -60 -27 -66 -32 -47 -39 12
-5 40 -11 63 -13 22 -2 43 -7 47 -11 4 -3 -4 -25 -17 -48 -25 -44 -23 -46 35
-22 19 8 20 7 2 -16 -9 -14 -20 -32 -24 -40 -7 -16 -73 -116 -194 -295 -41
-61 -82 -127 -93 -147 -10 -21 -26 -45 -35 -56 -19 -22 -32 -42 -67 -107 -15
-27 -40 -66 -55 -85 -16 -19 -29 -38 -29 -42 0 -11 -104 -167 -135 -203 -15
-16 -38 -43 -52 -60 -14 -16 -33 -38 -42 -48 -16 -19 -12 -20 84 -4 11 2 11
-6 0 -41 -6 -21 -4 -23 14 -17 20 6 21 4 15 -32 -12 -66 -6 -205 10 -277 30
-126 81 -215 107 -189 5 5 10 35 13 68 2 33 7 71 10 85 3 14 8 41 10 60 6 50
36 193 41 198 2 3 7 -4 11 -14 17 -48 89 -204 117 -254 27 -47 32 -67 34 -135
2 -44 8 -93 13 -110 15 -47 20 -114 11 -138 -5 -12 -47 -62 -94 -112 -47 -49
-83 -93 -81 -97 4 -6 37 1 78 17 16 7 15 3 -6 -31 -50 -80 -47 -104 10 -73 20
12 41 25 46 30 28 26 35 -5 11 -50 -26 -51 -17 -49 115 27 25 14 47 29 50 33
8 11 157 75 222 96 l57 18 50 97 c52 102 113 201 141 229 9 9 29 23 45 31 25
14 33 13 79 -5 28 -10 86 -30 130 -43 43 -13 84 -29 91 -34 21 -17 177 -341
190 -395 5 -16 9 -55 10 -86 2 -31 6 -67 10 -79 6 -20 10 -18 56 30 56 58 54
58 134 -15 l50 -45 26 59 c15 32 31 61 37 65 5 3 22 -1 38 -9 16 -7 52 -24 79
-36 28 -13 54 -25 59 -27 5 -3 6 20 1 54 -10 81 -12 195 -2 201 4 2 5 8 2 13
-3 5 -1 37 4 72 9 57 18 146 25 237 2 30 7 36 40 48 21 7 53 22 71 33 33 20
34 20 40 1 7 -24 16 -60 20 -86 1 -11 7 -37 13 -58 6 -20 8 -37 5 -37 -3 0 0
-6 6 -13 6 -8 8 -17 4 -20 -3 -4 -1 -7 5 -7 32 0 75 165 74 284 -1 35 6 46 64
105 91 92 159 233 214 441 68 257 88 282 430 510 350 234 517 412 630 675 5
11 14 38 21 60 6 22 16 45 21 52 22 27 1 31 -27 5 -73 -68 -225 -155 -390
-222 -117 -48 -277 -101 -284 -95 -3 4 -1 9 5 13 45 31 235 341 259 422 7 24
5 23 -31 -10 -21 -19 -41 -38 -44 -41 -25 -27 -292 -172 -390 -211 -36 -14
-99 -42 -140 -60 -41 -19 -91 -41 -110 -48 -44 -16 -158 -65 -228 -96 -29 -13
-55 -24 -57 -24 -11 0 -163 -75 -200 -99 -22 -14 -53 -38 -70 -53 -16 -16 -33
-28 -38 -28 -7 0 -27 40 -32 65 -2 6 -14 34 -29 64 -31 65 -32 71 -7 71 11 0
27 3 36 7 15 5 15 8 -6 24 -23 17 -23 17 37 24 32 4 68 8 79 10 11 2 30 4 43
4 26 1 29 19 5 37 -10 7 -69 39 -130 70 -62 32 -113 60 -113 64 0 4 14 10 32
14 39 8 27 23 -25 31 -21 4 -53 13 -71 20 l-34 14 3 73 c3 75 15 218 21 252
11 57 51 152 77 177 23 24 121 133 160 179 21 25 102 110 180 190 188 192 300
317 293 329 -5 8 -116 -30 -141 -49 -5 -4 -23 -10 -38 -14 -31 -7 -31 -6 5 46
10 14 18 31 18 37 0 11 -20 0 -177 -99 -48 -30 -108 -66 -133 -79 -25 -13 -61
-34 -80 -46 -19 -12 -87 -49 -151 -83 l-115 -61 -93 34 c-122 45 -153 53 -236
61 -39 3 -74 10 -79 15 -6 5 -10 60 -10 121 0 120 6 204 29 376 9 71 22 124
46 191 21 58 15 82 -13 48z m-900 -3161 c-14 -53 -29 -61 -25 -13 3 29 26 71
35 62 1 -1 -3 -23 -10 -49z"/>
</g>
</svg>
